<?xml version="1.0" standalone="no"?><!DOCTYPE svg PUBLIC "-//W3C//DTD SVG 1.1//EN" "http://www.w3.org/Graphics/SVG/1.1/DTD/svg11.dtd"><svg t="1690868709288" class="icon" viewBox="0 0 1024 1024" version="1.1" xmlns="http://www.w3.org/2000/svg" p-id="3199" xmlns:xlink="http://www.w3.org/1999/xlink" width="200" height="200"><path d="M534.56 984.32l66.56 33.28c4.64 2.24 10.08 2.24 14.56-0.32l103.36-57.6c2.72-1.6 2.56-5.6-0.32-6.88l-66.08-30.24v-39.04c0-5.76 3.2-11.04 8.32-13.76l318.88-167.04c5.12-2.72 8.32-8 8.32-13.76V308.32c0-11.68-12.32-19.2-22.72-13.76l-422.4 220.48c-5.12 2.72-8.32 8-8.32 13.76v455.52m335.36-346.08c0 2.88-1.6 5.6-4.16 6.88l-201.92 105.6c-5.12 2.72-11.36-1.12-11.36-6.88V579.84c0-2.88 1.6-5.6 4.16-6.88l201.92-105.6c5.12-2.72 11.36 1.12 11.36 6.88v164z" fill="#3451b2" p-id="3200" data-spm-anchor-id="a313x.7781069.0.i1" class=""></path><path d="M932.16 219.68L518.88 3.52c-4.48-2.4-9.92-2.4-14.4 0l-460.8 240.96c-5.12 2.72-8.32 8-8.32 13.76V737.6c0 5.76 3.2 11.04 8.32 13.76l418.88 219.04c10.4 5.44 22.72-2.08 22.72-13.76V490.4c0-5.76 3.2-11.04 8.32-13.76l438.72-229.28c11.04-5.92 11.04-21.76-0.16-27.68zM367.2 774.72c0 5.76-6.24 9.6-11.36 6.88L156 677.44c-2.56-1.28-4.16-4-4.16-6.88l1.28-214.08c0-5.76 6.24-9.6 11.36-6.88l198.56 103.84c2.56 1.28 4.16 4 4.16 6.88v214.4z m323.52-534.4l-204.96 107.2c-2.24 1.12-4.96 1.12-7.2 0l-175.84-92c-5.6-2.88-5.6-10.88 0-13.76l204.96-107.2c2.24-1.12 4.96-1.12 7.2 0l175.84 92c5.6 2.88 5.6 10.88 0 13.76z" fill="#3451b2" p-id="3201" data-spm-anchor-id="a313x.7781069.0.i0" class=""></path><path d="M158.56 448.8l-123.52 70.4 0.48 218.56s-0.8 1.92 1.12 6.56L152.32 673.6s-1.44-4.96-0.64-6.56c0.8-1.6 1.6-208.96 1.6-208.96s-1.28-5.12 5.28-9.28z" fill="#5672cd" p-id="3202" data-spm-anchor-id="a313x.7781069.0.i2" class="selected"></path><path d="M366.72 557.44l118.4-68.48v217.92l-121.28 74.24s3.36-1.6 3.36-6.88V560.32s0-2.4-0.48-2.88z" fill="#5672cd" p-id="3203" data-spm-anchor-id="a313x.7781069.0.i3" class="selected"></path><path d="M481.6 348.48s1.76 0.48 5.28-1.6c3.52-2.08 203.68-106.56 203.68-106.56s4.64-2.4 4-7.52l3.84 136.64-204.16 106.56s-9.44 4.48-9.28 14.4l-3.36-141.92z" fill="#5672cd" p-id="3204" data-spm-anchor-id="a313x.7781069.0.i4" class="selected"></path><path d="M298.4 111.04l0.48 134.72s0.16-2.08 3.68-4.16c3.36-2.08 204.96-107.2 204.96-107.2s2.56-1.76 3.36-0.64L513.12 1.6s-6.4-0.16-11.84 3.68c-5.6 3.84-202.88 105.76-202.88 105.76z" fill="#5672cd" p-id="3205" data-spm-anchor-id="a313x.7781069.0.i5" class="selected"></path></svg>