<svg t="1740496317904" class="icon" viewBox="0 0 1024 1024" version="1.1" xmlns="http://www.w3.org/2000/svg" p-id="1451" width="200" height="200"><path d="M950.637714 237.348571c-9.508571-4.681143-13.604571 4.169143-19.163428 8.630858-1.901714 1.462857-3.510857 3.437714-5.12 5.12-13.897143 14.921143-29.988571 24.576-51.2 23.405714a99.766857 99.766857 0 0 0-80.749715 31.817143c-5.046857-29.257143-21.504-46.738286-46.592-57.929143-13.165714-5.851429-26.477714-11.702857-35.620571-24.356572-6.436571-8.996571-8.192-19.017143-11.410286-28.891428-2.048-5.997714-4.096-12.068571-10.971428-13.092572-7.387429-1.170286-10.313143 5.12-13.238857 10.24-11.702857 21.430857-16.237714 45.056-15.872 68.900572 1.097143 53.613714 23.698286 96.329143 68.754285 126.756571 5.12 3.510857 6.363429 7.021714 4.754286 12.141715-3.072 10.459429-6.729143 20.626286-9.947429 31.085714-2.048 6.729143-5.12 8.192-12.214857 5.266286a205.531429 205.531429 0 0 1-64.877714-44.105143c-31.963429-30.939429-60.854857-65.097143-96.914286-91.867429a437.394286 437.394286 0 0 0-25.746285-17.554286c-36.790857-35.84 4.827429-65.316571 14.482285-68.754285 10.093714-3.584 3.510857-16.091429-29.037714-15.945143-32.548571 0.146286-62.390857 10.971429-100.352 25.526857-5.632 2.194286-11.410286 3.876571-17.334857 5.12a360.448 360.448 0 0 0-107.593143-3.803429c-70.436571 7.899429-126.610286 41.179429-168.009143 98.084572-49.590857 68.315429-61.293714 145.993143-46.957714 227.035428 14.994286 85.284571 58.514286 156.013714 125.44 211.382858 69.339429 57.197714 149.211429 85.284571 240.347428 79.872 55.296-3.145143 116.955429-10.605714 186.441143-69.485715 17.554286 8.777143 35.84 12.141714 66.486857 14.848 23.405714 2.194286 46.08-1.170286 63.634286-4.827428 27.428571-5.851429 25.526857-31.232 15.579429-35.913143-80.457143-37.522286-62.829714-22.308571-78.848-34.596572 40.96-48.493714 102.546286-98.742857 126.610285-261.851428 1.901714-12.873143 0.292571-20.992 0-31.524572-0.146286-6.363429 1.316571-8.850286 8.557715-9.581714 20.260571-2.048 39.862857-8.045714 57.782857-17.773714 52.077714-28.525714 73.142857-75.337143 78.043428-131.437714 0.731429-8.557714-0.146286-17.481143-9.142857-21.942858z m-454.217143 505.197715C418.377143 681.106286 380.489143 660.918857 364.982857 661.869714c-14.628571 0.731429-11.995429 17.554286-8.777143 28.452572 3.291429 10.752 7.68 18.139429 13.897143 27.574857 4.242286 6.290286 7.094857 15.652571-4.242286 22.601143-25.161143 15.579429-68.754286-5.266286-70.948571-6.290286-50.761143-29.915429-93.257143-69.485714-123.172571-123.611429a378.660571 378.660571 0 0 1-48.493715-167.497142c-0.731429-14.482286 3.510857-19.529143 17.846857-22.089143a177.005714 177.005714 0 0 1 57.051429-1.536c79.652571 11.702857 147.382857 47.323429 204.141714 103.716571 32.475429 32.182857 57.051429 70.582857 82.285715 108.105143 26.770286 39.862857 55.734857 77.824 92.525714 108.909714 12.946286 10.898286 23.405714 19.236571 33.28 25.307429-29.988571 3.364571-79.872 4.022857-114.029714-22.966857z m37.302858-240.713143a11.483429 11.483429 0 1 1 7.021714 10.605714 11.337143 11.337143 0 0 1-7.021714-10.678857z m116.077714 59.684571a68.461714 68.461714 0 0 1-22.016 5.924572 47.030857 47.030857 0 0 1-29.842286-9.508572c-10.24-8.557714-17.481143-13.312-20.553143-28.379428a66.048 66.048 0 0 1 0.585143-21.942857c2.633143-12.214857-0.292571-20.041143-8.850286-27.136-7.094857-5.851429-15.945143-7.387429-25.746285-7.387429a20.772571 20.772571 0 0 1-9.508572-2.925714c-4.096-2.121143-7.460571-7.168-4.242285-13.458286a44.105143 44.105143 0 0 1 7.168-7.826286c13.312-7.533714 28.598857-5.12 42.788571 0.585143 13.165714 5.412571 23.04 15.286857 37.302857 29.257143 14.628571 16.822857 17.261714 21.504 25.6 34.084571 6.582857 10.020571 12.580571 20.187429 16.676572 31.817143 2.486857 7.241143-0.731429 13.165714-9.362286 16.822857z" fill="#4D6BFE" p-id="1452"></path></svg>