<svg t="1712594676205" class="icon" viewBox="0 0 1024 1024" version="1.1" xmlns="http://www.w3.org/2000/svg" p-id="5833" id="mx_n_1712594676206" width="200" height="200"><path d="M767.317333 767.018667a33.237333 33.237333 0 0 1-20.565333 6.656 34.56 34.56 0 0 1-25.386667-10.709334 34.986667 34.986667 0 0 1-10.666666-25.557333 35.2 35.2 0 0 1 13.994666-28.501333 5.76 5.76 0 0 0 1.450667-1.109334l0.725333-0.725333c13.738667-9.386667 26.453333-20.48 38.272-33.28 11.733333-12.842667 22.058667-26.794667 30.848-41.813333 8.832-15.061333 15.701333-31.146667 20.608-48.128a190.293333 190.293333 0 0 0 7.338667-52.906667c0-37.034667-9.301333-70.826667-27.946667-101.418667a250.794667 250.794667 0 0 0-69.845333-75.52 34.730667 34.730667 0 0 1-15.445333-29.568 34.986667 34.986667 0 0 1 10.666666-25.557333 34.56 34.56 0 0 1 25.386667-10.709333c8.32 0 15.658667 2.688 22.058667 8.106666 18.133333 12.842667 35.029333 27.776 50.730666 44.8 15.658667 17.066667 29.141333 35.541333 40.448 55.509334 11.264 19.968 20.053333 41.344 26.453334 64 6.4 22.698667 9.557333 46.165333 9.557333 70.314666 0 24.704-3.2 48.384-9.557333 71.082667a285.653333 285.653333 0 0 1-26.837334 64.384 305.450667 305.450667 0 0 1-92.288 100.693333v-0.042666z m-41.173333-332.330667c10.282667 14.336 18.517333 28.757333 24.661333 43.306667 6.101333 14.549333 9.173333 32.213333 9.173334 52.906666 0 19.754667-3.2 37.546667-9.557334 53.333334-6.4 15.786667-14.464 30.08-24.277333 42.88-3.925333 5.461333-8.106667 10.24-12.501333 14.464a23.552 23.552 0 0 1-16.896 6.272 29.866667 29.866667 0 0 1-22.442667-9.6 32.085333 32.085333 0 0 1-9.173333-22.954667 33.706667 33.706667 0 0 1 2.218666-11.861333h-0.768c2.474667-5.418667 5.418667-10.581333 8.832-15.530667 3.413333-4.949333 6.741333-9.984 9.941334-15.146667a84.48 84.48 0 0 0 8.106666-17.792c2.176-6.656 3.285333-14.677333 3.285334-24.064 0-8.874667-1.109333-16.64-3.328-23.296a94.208 94.208 0 0 0-8.106667-18.133333 240.170667 240.170667 0 0 0-9.898667-15.530667 67.072 67.072 0 0 1-8.106666-15.573333 29.994667 29.994667 0 0 1-2.176-11.818667c0-8.874667 3.072-16.512 9.173333-22.954666a29.866667 29.866667 0 0 1 22.442667-9.6c6.826667 0 12.501333 2.090667 16.896 6.272 4.437333 4.181333 8.576 9.002667 12.501333 14.421333z m-237.482667 439.637333a9078.869333 9078.869333 0 0 0-157.354666-139.136 10554.453333 10554.453333 0 0 0-83.797334-70.314666 177.408 177.408 0 0 1-16.213333 0.725333 125.781333 125.781333 0 0 1-13.952 0.768h-12.501333c-13.226667 0-24.021333-4.096-32.341334-12.202667a39.424 39.424 0 0 1-12.501333-29.269333v-186.453333h0.725333l-0.725333-0.768c0-13.824 4.266667-25.173333 12.885333-34.048a42.666667 42.666667 0 0 1 32-13.312h41.856a13012.906667 13012.906667 0 0 1 122.794667-103.637334c15.701333-13.312 31.146667-26.282667 46.336-38.826666 15.189333-12.586667 28.928-24.064 41.173333-34.432 12.245333-10.368 22.570667-18.986667 30.890667-25.898667 8.32-6.912 13.482667-11.093333 15.445333-12.586667 14.677333-10.88 26.581333-15.786667 35.626667-14.805333 9.088 0.981333 16.213333 5.418667 21.333333 13.312s8.704 17.493333 10.666667 28.885333c1.962667 11.349333 2.944 21.674667 2.944 31.061334v599.466666c0 9.386667-1.706667 19.413333-5.12 29.994667-3.456 10.624-8.746667 19.029333-15.829333 25.173333-7.125333 6.186667-16.042667 8.746667-26.88 7.765334-10.752-0.981333-23.253333-8.106667-37.461334-21.461334z" fill="#fb923c" p-id="5834"></path></svg>